<svg width="66" height="66" viewBox="0 0 66 66" fill="none" xmlns="http://www.w3.org/2000/svg">
<rect x="5" y="5" width="56" height="56" rx="28" fill="#D6E4FF"/>
<rect x="5" y="5" width="56" height="56" rx="28" stroke="#E7EFFF" stroke-width="10"/>
<path d="M36.5 21.3334V22.9667C36.5 23.6201 36.5 23.9468 36.3728 24.1964C36.261 24.4159 36.0825 24.5944 35.863 24.7062C35.6134 24.8334 35.2867 24.8334 34.6333 24.8334H31.3667C30.7133 24.8334 30.3866 24.8334 30.137 24.7062C29.9175 24.5944 29.739 24.4159 29.6272 24.1964C29.5 23.9468 29.5 23.6201 29.5 22.9667V21.3334M28.5667 44.6667H37.4333C38.7401 44.6667 39.3935 44.6667 39.8926 44.4124C40.3317 44.1887 40.6886 43.8317 40.9123 43.3927C41.1667 42.8936 41.1667 42.2402 41.1667 40.9334V25.0667C41.1667 23.7599 41.1667 23.1065 40.9123 22.6074C40.6886 22.1684 40.3317 21.8114 39.8926 21.5877C39.3935 21.3334 38.7401 21.3334 37.4333 21.3334H28.5667C27.2599 21.3334 26.6065 21.3334 26.1074 21.5877C25.6683 21.8114 25.3114 22.1684 25.0876 22.6074C24.8333 23.1065 24.8333 23.7599 24.8333 25.0667V40.9334C24.8333 42.2402 24.8333 42.8936 25.0876 43.3927C25.3114 43.8317 25.6683 44.1887 26.1074 44.4124C26.6065 44.6667 27.2599 44.6667 28.5667 44.6667Z" stroke="#254EDB" stroke-width="2" stroke-linecap="round" stroke-linejoin="round"/>
</svg>
