<svg width="66" height="66" viewBox="0 0 66 66" fill="none" xmlns="http://www.w3.org/2000/svg">
<rect x="5" y="5" width="56" height="56" rx="28" fill="#D6E4FF"/>
<path d="M28.777 29.3289C29.589 31.0201 30.6959 32.6052 32.0977 34.0071C33.4996 35.4089 35.0847 36.5158 36.7759 37.3278C36.9214 37.3977 36.9941 37.4326 37.0861 37.4594C37.4132 37.5548 37.8149 37.4863 38.0919 37.2879C38.1698 37.2321 38.2365 37.1654 38.3699 37.0321C38.7777 36.6242 38.9817 36.4203 39.1867 36.2869C39.9601 35.7841 40.9571 35.7841 41.7305 36.2869C41.9356 36.4203 42.1395 36.6242 42.5474 37.0321L42.7747 37.2594C43.3947 37.8794 43.7047 38.1894 43.8731 38.5224C44.2081 39.1845 44.2081 39.9665 43.8731 40.6287C43.7047 40.9616 43.3947 41.2716 42.7747 41.8916L42.5908 42.0755C41.9729 42.6934 41.664 43.0024 41.2439 43.2383C40.7778 43.5002 40.0539 43.6884 39.5194 43.6868C39.0376 43.6854 38.7083 43.5919 38.0498 43.405C34.5108 42.4006 31.1714 40.5053 28.3854 37.7194C25.5995 34.9334 23.7042 31.594 22.6998 28.055C22.5129 27.3965 22.4194 27.0672 22.418 26.5855C22.4164 26.0509 22.6046 25.327 22.8665 24.8609C23.1024 24.4408 23.4114 24.1319 24.0293 23.514L24.2132 23.3301C24.8332 22.7101 25.1432 22.4001 25.4761 22.2317C26.1383 21.8967 26.9203 21.8967 27.5824 22.2317C27.9154 22.4001 28.2254 22.7101 28.8454 23.3301L29.0727 23.5574C29.4806 23.9653 29.6846 24.1692 29.8179 24.3743C30.3207 25.1477 30.3207 26.1447 29.8179 26.9181C29.6846 27.1231 29.4806 27.3271 29.0727 27.735C28.9394 27.8683 28.8727 27.935 28.8169 28.0129C28.6185 28.2899 28.55 28.6916 28.6454 29.0187C28.6722 29.1107 28.7071 29.1834 28.777 29.3289Z" stroke="#254EDB" stroke-width="2" stroke-linecap="round" stroke-linejoin="round"/>
<rect x="5" y="5" width="56" height="56" rx="28" stroke="#E7EFFF" stroke-width="10"/>
</svg>
