<svg width="66" height="66" viewBox="0 0 66 66" fill="none" xmlns="http://www.w3.org/2000/svg">
<rect x="5" y="5" width="56" height="56" rx="28" fill="#D6E4FF"/>
<rect x="5" y="5" width="56" height="56" rx="28" stroke="#E7EFFF" stroke-width="10"/>
<path d="M29.5003 32.4171L31.8337 34.7504L37.0837 29.5004M42.3337 33.0004C42.3337 38.7269 36.0874 42.8919 33.8146 44.2178C33.5564 44.3685 33.4272 44.4438 33.245 44.4829C33.1035 44.5132 32.8971 44.5132 32.7557 44.4829C32.5734 44.4438 32.4443 44.3685 32.186 44.2178C29.9133 42.8919 23.667 38.7269 23.667 33.0004V27.421C23.667 26.4882 23.667 26.0218 23.8195 25.6209C23.9543 25.2667 24.1733 24.9507 24.4576 24.7002C24.7794 24.4166 25.2161 24.2528 26.0895 23.9253L32.3449 21.5795C32.5874 21.4886 32.7087 21.4431 32.8335 21.4251C32.9441 21.4091 33.0565 21.4091 33.1672 21.4251C33.2919 21.4431 33.4132 21.4886 33.6558 21.5795L39.9112 23.9253C40.7846 24.2528 41.2212 24.4166 41.5431 24.7002C41.8273 24.9507 42.0463 25.2667 42.1811 25.6209C42.3337 26.0218 42.3337 26.4882 42.3337 27.421V33.0004Z" stroke="#254EDB" stroke-width="2" stroke-linecap="round" stroke-linejoin="round"/>
</svg>
