<svg width="66" height="66" viewBox="0 0 66 66" fill="none" xmlns="http://www.w3.org/2000/svg">
<rect x="5" y="5" width="56" height="56" rx="28" fill="#D6E4FF"/>
<path d="M21.333 27.166L30.8587 33.834C31.6301 34.374 32.0158 34.644 32.4353 34.7485C32.8059 34.8409 33.1935 34.8409 33.564 34.7485C33.9836 34.644 34.3692 34.374 35.1406 33.834L44.6663 27.166M26.933 42.3327H39.0663C41.0265 42.3327 42.0066 42.3327 42.7553 41.9512C43.4139 41.6156 43.9493 41.0802 44.2849 40.4217C44.6663 39.673 44.6663 38.6929 44.6663 36.7327V29.266C44.6663 27.3058 44.6663 26.3257 44.2849 25.577C43.9493 24.9185 43.4139 24.383 42.7553 24.0475C42.0066 23.666 41.0265 23.666 39.0663 23.666H26.933C24.9728 23.666 23.9927 23.666 23.244 24.0475C22.5855 24.383 22.05 24.9185 21.7145 25.577C21.333 26.3257 21.333 27.3058 21.333 29.266V36.7327C21.333 38.6929 21.333 39.673 21.7145 40.4217C22.05 41.0802 22.5855 41.6156 23.244 41.9512C23.9927 42.3327 24.9728 42.3327 26.933 42.3327Z" stroke="#254EDB" stroke-width="2" stroke-linecap="round" stroke-linejoin="round"/>
<rect x="5" y="5" width="56" height="56" rx="28" stroke="#E7EFFF" stroke-width="10"/>
</svg>
