<svg width="48" height="48" viewBox="0 0 48 48" fill="none" xmlns="http://www.w3.org/2000/svg">
<g clip-path="url(#clip0_5093_61787)">
<path d="M48 24C48 10.7452 37.2548 0 24 0C10.7452 0 0 10.7452 0 24C0 37.2548 10.7452 48 24 48C37.2548 48 48 37.2548 48 24Z" fill="#572BD6"/>
<path d="M34.3838 26.3306H24.4659L28.1625 14.0091C28.4578 13.0238 29.3653 12.3488 30.3947 12.3488H40.3125L36.6159 24.6703C36.3206 25.6556 35.4131 26.3306 34.3838 26.3306Z" fill="white"/>
<path d="M17.6053 35.6522H7.6875L14.1806 14.0091C14.4759 13.0238 15.3834 12.3488 16.4128 12.3488H26.3306L19.8375 33.9919C19.5422 34.9772 18.6347 35.6522 17.6053 35.6522Z" fill="white"/>
</g>
<defs>
<clipPath id="clip0_5093_61787">
<rect width="48" height="48" fill="white"/>
</clipPath>
</defs>
</svg>
