<svg width="48" height="48" viewBox="0 0 48 48" fill="none" xmlns="http://www.w3.org/2000/svg">
<g clip-path="url(#clip0_5093_61782)">
<path d="M45.3011 24C45.3011 35.7455 35.7455 45.3021 24 45.3021C18.1745 45.3021 12.8891 42.9507 9.03908 39.1489L8.345 42.1773C12.551 45.8045 18.0234 48 23.9991 48C37.2328 48 47.9991 37.2338 47.9991 24C47.9991 22.8262 47.9131 21.6732 47.7498 20.5447H45.0197C45.2039 21.6694 45.3011 22.8243 45.3011 24Z" fill="#0C2B44"/>
<path d="M2.69793 24C2.69793 12.2545 12.2536 2.69888 24 2.69888C33.0882 2.69888 40.8637 8.42054 43.9177 16.4501H46.7818C43.6108 6.90395 34.5972 0 24 0C10.7662 0 0 10.7662 0 24C0 29.2693 1.70828 34.1458 4.59791 38.1092L5.41287 34.3951C3.6857 31.3185 2.69888 27.7726 2.69888 24.0009L2.69793 24Z" fill="#0C2B44"/>
<path d="M16.435 16.0554C12.1289 16.0554 8.76238 18.6636 7.85206 23.2738L5.41192 34.3942L4.59697 38.1082C5.68766 39.604 6.9455 40.9695 8.34499 42.1764L9.03907 39.1479L11.279 29.3694C12.0675 30.9767 13.705 31.8256 15.8278 31.8256C20.438 31.8256 24.0472 27.8831 24.0472 23.1822C24.0472 18.4814 20.7714 16.0554 16.435 16.0554ZM15.4954 27.58C13.6455 27.58 12.3112 26.3363 12.3112 24.3655C12.3112 22.2728 13.7975 20.3011 16.2235 20.3011C18.1036 20.3011 19.3775 21.4834 19.3775 23.4249C19.3775 25.5478 17.8912 27.58 15.4954 27.58Z" fill="#0C2B44"/>
<path d="M29.954 20.5447H47.7507C47.5467 19.1367 47.2209 17.7684 46.7828 16.4501H30.7736L31.2807 13.8381C31.5518 12.4415 30.4818 11.143 29.0588 11.143C27.9756 11.143 27.0445 11.9098 26.8368 12.9731L24.4948 24.9726C24.4344 25.2758 24.3126 25.9736 24.3126 26.6705C24.3126 30.1277 26.9208 31.8265 30.2873 31.8265C33.6538 31.8265 36.1402 30.037 36.9287 26.1549L37.1412 25.0633H32.531L32.4102 25.73C32.1372 27.1559 31.4394 27.5799 30.5602 27.5799C29.6811 27.5799 28.9228 27.1861 28.9228 26.0633C28.9228 25.8811 28.953 25.6384 29.0144 25.3655L29.9549 20.5438L29.954 20.5447Z" fill="#0C2B44"/>
</g>
<defs>
<clipPath id="clip0_5093_61782">
<rect width="48" height="48" fill="white"/>
</clipPath>
</defs>
</svg>
