<svg width="48" height="49" viewBox="0 0 48 49" fill="none" xmlns="http://www.w3.org/2000/svg">
<g clip-path="url(#clip0_5093_61792)">
<path d="M11.4843 14.4901C5.39191 14.5367 0.509109 19.5638 0.509109 25.6568V43.6292H6.40896V35.3374L6.45725 25.5207C6.46656 23.6681 7.44696 21.9377 9.06622 21.037C9.84414 20.6041 10.7466 20.3667 11.7054 20.3906C14.4395 20.4604 16.6668 22.6923 16.7314 25.4264C16.8006 28.3338 14.4639 30.7136 11.571 30.7136C10.1525 30.7136 8.8684 30.1416 7.93571 29.2159V36.0013C9.08891 36.4022 10.3288 36.6187 11.6205 36.614C17.706 36.5878 22.6621 31.5846 22.633 25.4985C22.6039 19.3846 17.6152 14.443 11.4843 14.4901Z" fill="#231F20"/>
<path d="M36.4773 14.5646C35.1862 14.5588 33.9457 14.7752 32.7925 15.1773V21.9627C33.749 21.0137 35.075 20.4359 36.536 20.4656C39.3376 20.5226 41.6015 22.8442 41.5905 25.6475C41.5794 28.4886 39.273 30.7886 36.4284 30.7886C35.5062 30.7886 34.641 30.5471 33.8927 30.1236C32.2903 29.2182 31.3245 27.4965 31.3152 25.6556L31.2657 15.8411V7.54877H25.3665V25.5212C25.3665 31.6142 30.2487 36.6413 36.3417 36.6879C42.4731 36.735 47.4612 31.7934 47.4897 25.6795C47.5182 19.594 42.5621 14.5908 36.4773 14.5646Z" fill="#231F20"/>
<path d="M45.2933 34.531C43.8905 35.9274 42.2148 36.9532 40.3878 37.5566C36.5122 42.3212 30.6065 45.3712 23.9997 45.3712C17.3929 45.3712 11.7881 42.4737 7.91127 37.9167V42.3992C12.3513 46.3464 18.0097 48.505 23.9997 48.505C30.4785 48.505 36.5686 45.9827 41.1494 41.4019C43.6025 38.9489 45.4643 36.0624 46.6658 32.9164C46.258 33.486 45.8001 34.0271 45.2933 34.5316" fill="#F14724"/>
<path d="M5.12077 14.795C8.59609 7.88567 15.7527 3.1332 23.9997 3.1332C32.2467 3.1332 39.458 7.92232 42.9176 14.8741C43.7898 15.4048 44.605 16.0465 45.3439 16.7925C46.4895 17.9492 47.3838 19.2856 48 20.735C47.2576 15.5915 44.8901 10.8437 41.1488 7.10251C36.5686 2.52227 30.4779 0 24.0003 0C17.5227 0 11.4314 2.52227 6.85058 7.10309C3.11051 10.8437 0.743591 15.5898 0 20.7321C1.04498 18.2535 2.85159 16.174 5.12077 14.795Z" fill="#F14724"/>
</g>
<defs>
<clipPath id="clip0_5093_61792">
<rect width="48" height="48.505" fill="white"/>
</clipPath>
</defs>
</svg>
